<?xml version="1.0" encoding="UTF-8"?>
<!DOCTYPE svg PUBLIC "-//W3C//DTD SVG 1.1//EN" "http://www.w3.org/Graphics/SVG/1.1/DTD/svg11.dtd">
<svg xmlns="http://www.w3.org/2000/svg" version="1.1" width="1500px" height="3042px" style="shape-rendering:geometricPrecision; text-rendering:geometricPrecision; image-rendering:optimizeQuality; fill-rule:evenodd; clip-rule:evenodd" xmlns:xlink="http://www.w3.org/1999/xlink">
<g><path style="opacity:0.96" fill="#848e97" d="M 1160.5,1.5 C 1160.5,2.83333 1160.5,4.16667 1160.5,5.5C 856.166,5.33333 551.833,5.5 247.5,6C 149.162,16.2218 78.6622,65.7218 36,154.5C 25.4018,179.82 18.7351,206.153 16,233.5C 15.5,260.165 15.3334,286.831 15.5,313.5C 13.8333,313.5 12.1667,313.5 10.5,313.5C 10.3334,289.164 10.5,264.831 11,240.5C 19.5268,142.719 67.0268,71.2187 153.5,26C 181.978,12.38 211.978,4.38003 243.5,2C 549.166,1.5 854.833,1.33333 1160.5,1.5 Z"/></g>
<g><path style="opacity:1" fill="#e2e8ec" d="M 1160.5,1.5 C 1170.5,1.5 1180.5,1.5 1190.5,1.5C 1190.5,2.83333 1190.5,4.16667 1190.5,5.5C 1190.5,9.83333 1190.5,14.1667 1190.5,18.5C 1180.5,18.5 1170.5,18.5 1160.5,18.5C 1160.5,14.1667 1160.5,9.83333 1160.5,5.5C 1160.5,4.16667 1160.5,2.83333 1160.5,1.5 Z"/></g>
<g><path style="opacity:0.893" fill="#858f98" d="M 1190.5,1.5 C 1215.53,1.10293 1240.53,1.60293 1265.5,3C 1358.3,16.6172 1425.13,65.4505 1466,149.5C 1477.06,174.39 1484.06,200.39 1487,227.5C 1488.38,256.145 1488.88,284.812 1488.5,313.5C 1486.83,313.5 1485.17,313.5 1483.5,313.5C 1483.79,285.146 1483.46,256.812 1482.5,228.5C 1481.01,213.6 1478.18,198.934 1474,184.5C 1471.96,177.541 1469.46,170.874 1466.5,164.5C 1432.71,82.7487 1372.71,31.582 1286.5,11C 1274.86,9.13615 1263.19,7.46948 1251.5,6C 1231.17,5.50004 1210.84,5.33338 1190.5,5.5C 1190.5,4.16667 1190.5,2.83333 1190.5,1.5 Z"/></g>
<g><path style="opacity:1" fill="#b4c0cb" d="M 1160.5,5.5 C 1160.5,9.83333 1160.5,14.1667 1160.5,18.5C 1170.5,18.5 1180.5,18.5 1190.5,18.5C 1203.68,18.1712 1216.68,18.5045 1229.5,19.5C 900.483,19.0068 571.483,19.5068 242.5,21C 168.659,31.9826 110.825,68.1493 69,129.5C 47.3686,163.393 34.7019,200.393 31,240.5C 30.5,1089.5 30.3333,1938.5 30.5,2787.5C 29.5028,2767.34 29.1695,2747.01 29.5,2726.5C 29.5,2716.83 29.5,2707.17 29.5,2697.5C 29.5,1912.83 29.5,1128.17 29.5,343.5C 29.5,333.5 29.5,323.5 29.5,313.5C 24.8333,313.5 20.1667,313.5 15.5,313.5C 15.3334,286.831 15.5,260.165 16,233.5C 18.7351,206.153 25.4018,179.82 36,154.5C 78.6622,65.7218 149.162,16.2218 247.5,6C 551.833,5.5 856.166,5.33333 1160.5,5.5 Z"/></g>
<g><path style="opacity:1" fill="#0d0d0d" d="M 1229.5,19.5 C 1309.78,22.1385 1374.12,55.1385 1422.5,118.5C 1442.93,146.416 1456.59,177.416 1463.5,211.5C 1464.94,218.936 1466.27,226.27 1467.5,233.5C 1468.5,1084.82 1468.83,1936.15 1468.5,2787.5C 1468.06,2794.83 1467.72,2802.16 1467.5,2809.5C 1461.45,2850 1446.78,2887 1423.5,2920.5C 1421.77,2922.23 1420.44,2924.23 1419.5,2926.5C 1416.15,2929.85 1413.15,2933.52 1410.5,2937.5C 1362.72,2991.01 1302.72,3019.01 1230.5,3021.5C 910.833,3021.5 591.167,3021.5 271.5,3021.5C 210.833,3021.18 157.833,3001.18 112.5,2961.5C 109.167,2958.5 105.833,2955.5 102.5,2952.5C 100.833,2950.17 98.8333,2948.17 96.5,2946.5C 85.7032,2934.05 75.7032,2921.05 66.5,2907.5C 44.2342,2870.69 32.2342,2830.69 30.5,2787.5C 30.3333,1938.5 30.5,1089.5 31,240.5C 34.7019,200.393 47.3686,163.393 69,129.5C 110.825,68.1493 168.659,31.9826 242.5,21C 571.483,19.5068 900.483,19.0068 1229.5,19.5 Z M 256.5,67.5 C 588.517,67.0068 920.517,67.5068 1252.5,69C 1327.98,81.3103 1380.15,122.81 1409,193.5C 1415.04,210.673 1418.71,228.34 1420,246.5C 1420.67,1095.83 1420.67,1945.17 1420,2794.5C 1415.12,2849.76 1391.62,2895.26 1349.5,2931C 1318.22,2955.77 1282.55,2969.77 1242.5,2973C 913.833,2973.67 585.167,2973.67 256.5,2973C 185.634,2965.51 133.134,2930.67 99,2868.5C 87.4458,2845.17 80.7791,2820.5 79,2794.5C 78.3333,1945.17 78.3333,1095.83 79,246.5C 85.0323,181.568 115.199,131.402 169.5,96C 196.375,79.7635 225.375,70.2635 256.5,67.5 Z"/></g>
<g><path style="opacity:1" fill="#bac7d2" d="M 1190.5,5.5 C 1210.84,5.33338 1231.17,5.50004 1251.5,6C 1263.19,7.46948 1274.86,9.13615 1286.5,11C 1372.71,31.582 1432.71,82.7487 1466.5,164.5C 1461.5,164.5 1456.5,164.5 1451.5,164.5C 1451.5,154.167 1451.5,143.833 1451.5,133.5C 1446.17,133.5 1440.83,133.5 1435.5,133.5C 1435.5,128.167 1435.5,122.833 1435.5,117.5C 1430.97,117.182 1426.63,117.515 1422.5,118.5C 1374.12,55.1385 1309.78,22.1385 1229.5,19.5C 1216.68,18.5045 1203.68,18.1712 1190.5,18.5C 1190.5,14.1667 1190.5,9.83333 1190.5,5.5 Z"/></g>
<g><path style="opacity:1" fill="#1a1a1a" d="M 621.5,26.5 C 706.666,25.3343 791.999,25.1676 877.5,26C 876.449,27.3848 875.116,28.3848 873.5,29C 790.833,29.6667 708.167,29.6667 625.5,29C 624.016,28.3378 622.683,27.5045 621.5,26.5 Z"/></g>
<g><path style="opacity:0.981" fill="#000000" d="M 252.5,35.5 C 586.853,35.006 921.186,35.506 1255.5,37C 1340.39,51.2296 1399.22,98.0629 1432,177.5C 1439.02,196.577 1443.35,216.244 1445,236.5C 1445.67,1092.5 1445.67,1948.5 1445,2804.5C 1436.26,2883.55 1397.43,2942.39 1328.5,2981C 1302.73,2994.28 1275.4,3002.28 1246.5,3005C 915.167,3005.67 583.833,3005.67 252.5,3005C 177.51,2996.27 120.677,2959.77 82,2895.5C 66.0168,2867.22 56.6835,2836.88 54,2804.5C 53.3333,1948.5 53.3333,1092.5 54,236.5C 63.3691,153.855 104.869,93.6888 178.5,56C 202.159,45.0883 226.826,38.2549 252.5,35.5 Z M 256.5,67.5 C 225.375,70.2635 196.375,79.7635 169.5,96C 115.199,131.402 85.0323,181.568 79,246.5C 78.3333,1095.83 78.3333,1945.17 79,2794.5C 80.7791,2820.5 87.4458,2845.17 99,2868.5C 133.134,2930.67 185.634,2965.51 256.5,2973C 585.167,2973.67 913.833,2973.67 1242.5,2973C 1282.55,2969.77 1318.22,2955.77 1349.5,2931C 1391.62,2895.26 1415.12,2849.76 1420,2794.5C 1420.67,1945.17 1420.67,1095.83 1420,246.5C 1418.71,228.34 1415.04,210.673 1409,193.5C 1380.15,122.81 1327.98,81.3103 1252.5,69C 920.517,67.5068 588.517,67.0068 256.5,67.5 Z"/></g>
<g><path style="opacity:0.988" fill="#000000" d="M 595.5,108.5 C 698.167,108.333 800.834,108.5 903.5,109C 930.888,115.721 947.388,132.888 953,160.5C 955.47,190.404 943.303,211.904 916.5,225C 911.625,226.802 906.625,228.135 901.5,229C 798.465,229.989 695.465,229.656 592.5,228C 559.311,217.794 543.811,195.294 546,160.5C 551.796,132.873 568.296,115.54 595.5,108.5 Z"/></g>
<g><path style="opacity:1" fill="#09090a" d="M 887.5,133.5 C 911.689,133.192 925.022,145.026 927.5,169C 925.787,190.547 914.12,202.38 892.5,204.5C 874.478,203.087 862.978,193.753 858,176.5C 855.916,153.784 865.749,139.45 887.5,133.5 Z"/></g>
<g><path style="opacity:1" fill="#0a0d13" d="M 885.5,147.5 C 904.811,145.65 914.311,154.317 914,173.5C 907.901,188.798 897.067,193.631 881.5,188C 870.902,180.402 868.068,170.569 873,158.5C 876.148,153.509 880.314,149.843 885.5,147.5 Z"/></g>
<g><path style="opacity:1" fill="#091326" d="M 886.5,152.5 C 903.039,150.87 910.205,158.204 908,174.5C 903.058,184.719 895.225,187.885 884.5,184C 875.016,177.203 873.183,168.703 879,158.5C 881.478,156.361 883.978,154.361 886.5,152.5 Z"/></g>
<g><path style="opacity:1" fill="#c6d3df" d="M 1466.5,164.5 C 1466.83,180.514 1466.5,196.514 1465.5,212.5C 1464.82,212.137 1464.15,211.804 1463.5,211.5C 1456.59,177.416 1442.93,146.416 1422.5,118.5C 1426.63,117.515 1430.97,117.182 1435.5,117.5C 1435.5,122.833 1435.5,128.167 1435.5,133.5C 1440.83,133.5 1446.17,133.5 1451.5,133.5C 1451.5,143.833 1451.5,154.167 1451.5,164.5C 1456.5,164.5 1461.5,164.5 1466.5,164.5 Z"/></g>
<g><path style="opacity:1" fill="#bccad5" d="M 1466.5,164.5 C 1469.46,170.874 1471.96,177.541 1474,184.5C 1478.18,198.934 1481.01,213.6 1482.5,228.5C 1477.59,227.555 1472.59,227.221 1467.5,227.5C 1467.5,229.5 1467.5,231.5 1467.5,233.5C 1466.27,226.27 1464.94,218.936 1463.5,211.5C 1464.15,211.804 1464.82,212.137 1465.5,212.5C 1466.5,196.514 1466.83,180.514 1466.5,164.5 Z"/></g>
<g><path style="opacity:1" fill="#b7c2cd" d="M 1482.5,228.5 C 1483.46,256.812 1483.79,285.146 1483.5,313.5C 1478.83,313.5 1474.17,313.5 1469.5,313.5C 1469.5,323.5 1469.5,333.5 1469.5,343.5C 1469.5,1128.17 1469.5,1912.83 1469.5,2697.5C 1469.5,2707.17 1469.5,2716.83 1469.5,2726.5C 1469.83,2747.01 1469.5,2767.34 1468.5,2787.5C 1468.83,1936.15 1468.5,1084.82 1467.5,233.5C 1467.5,231.5 1467.5,229.5 1467.5,227.5C 1472.59,227.221 1477.59,227.555 1482.5,228.5 Z"/></g>
<g><path style="opacity:0.974" fill="#e2e8ec" d="M 10.5,313.5 C 12.1667,313.5 13.8333,313.5 15.5,313.5C 20.1667,313.5 24.8333,313.5 29.5,313.5C 29.5,323.5 29.5,333.5 29.5,343.5C 25.5,343.5 21.5,343.5 17.5,343.5C 16.8333,343.5 16.1667,343.5 15.5,343.5C 13.8333,343.5 12.1667,343.5 10.5,343.5C 10.5,333.5 10.5,323.5 10.5,313.5 Z"/></g>
<g><path style="opacity:0.974" fill="#e2e8ec" d="M 1483.5,313.5 C 1485.17,313.5 1486.83,313.5 1488.5,313.5C 1488.5,323.5 1488.5,333.5 1488.5,343.5C 1486.83,343.5 1485.17,343.5 1483.5,343.5C 1478.83,343.5 1474.17,343.5 1469.5,343.5C 1469.5,333.5 1469.5,323.5 1469.5,313.5C 1474.17,313.5 1478.83,313.5 1483.5,313.5 Z"/></g>
<g><path style="opacity:0.898" fill="#86909a" d="M 10.5,343.5 C 12.1667,343.5 13.8333,343.5 15.5,343.5C 15.5,1128.17 15.5,1912.83 15.5,2697.5C 14.8333,2697.5 14.1667,2697.5 13.5,2697.5C 12.506,2707.32 12.1726,2717.32 12.5,2727.5C 13.5,2727.5 14.5,2727.5 15.5,2727.5C 15.3334,2754.17 15.5,2780.84 16,2807.5C 20.2595,2855.14 36.7595,2897.81 65.5,2935.5C 65.5,2935.83 65.5,2936.17 65.5,2936.5C 90.3665,2969.2 121.366,2994.36 158.5,3012C 159.337,3013.01 159.67,3014.18 159.5,3015.5C 162.187,3015.34 164.854,3015.5 167.5,3016C 175.414,3019.13 183.414,3021.96 191.5,3024.5C 191.768,3026.1 191.434,3027.43 190.5,3028.5C 185.393,3027.58 180.393,3026.24 175.5,3024.5C 168.659,3021.32 161.659,3018.32 154.5,3015.5C 151.028,3013.26 147.362,3011.26 143.5,3009.5C 129.963,3001.9 116.963,2993.57 104.5,2984.5C 102.451,2981.45 99.7843,2979.12 96.5,2977.5C 93.7891,2973.79 90.4558,2970.79 86.5,2968.5C 84.8333,2966.17 82.8333,2964.17 80.5,2962.5C 38.5182,2916.84 15.3515,2862.84 11,2800.5C 10.5,2320.83 10.3333,1841.17 10.5,1361.5C 7.63544,1361.95 5.13544,1361.28 3,1359.5C 2.50166,1356.18 2.33499,1352.85 2.5,1349.5C 5.16667,1349.5 7.83333,1349.5 10.5,1349.5C 11.8221,1277.69 11.8221,1206.02 10.5,1134.5C 7.48674,1134.11 4.82007,1134.77 2.5,1136.5C 2.04943,1130.62 4.7161,1128.28 10.5,1129.5C 10.5,1108.83 10.5,1088.17 10.5,1067.5C 7.8431,1067.84 5.50976,1067.17 3.5,1065.5C 2.58266,1062.24 2.24933,1058.91 2.5,1055.5C 5.16667,1055.5 7.83333,1055.5 10.5,1055.5C 11.8189,983.683 11.8189,912.016 10.5,840.5C 7.48674,840.107 4.82007,840.774 2.5,842.5C 1.99983,836.671 4.6665,834.337 10.5,835.5C 10.5,802.167 10.5,768.833 10.5,735.5C 3.16723,736.153 0.500563,732.82 2.5,725.5C 5.16667,725.5 7.83333,725.5 10.5,725.5C 10.5,691.5 10.5,657.5 10.5,623.5C 7.48674,623.107 4.82007,623.774 2.5,625.5C 2.32541,620.011 4.99207,617.678 10.5,618.5C 10.5,526.833 10.5,435.167 10.5,343.5 Z"/></g>
<g><path style="opacity:1" fill="#b9c7d1" d="M 15.5,343.5 C 16.1667,343.5 16.8333,343.5 17.5,343.5C 17.5,1128.17 17.5,1912.83 17.5,2697.5C 16.8333,2697.5 16.1667,2697.5 15.5,2697.5C 15.5,1912.83 15.5,1128.17 15.5,343.5 Z"/></g>
<g><path style="opacity:1" fill="#c1cfda" d="M 17.5,343.5 C 21.5,343.5 25.5,343.5 29.5,343.5C 29.5,1128.17 29.5,1912.83 29.5,2697.5C 25.5,2697.5 21.5,2697.5 17.5,2697.5C 17.5,1912.83 17.5,1128.17 17.5,343.5 Z"/></g>
<g><path style="opacity:1" fill="#cad7e4" d="M 1469.5,343.5 C 1474.17,343.5 1478.83,343.5 1483.5,343.5C 1483.5,1128.17 1483.5,1912.83 1483.5,2697.5C 1478.83,2697.5 1474.17,2697.5 1469.5,2697.5C 1469.5,1912.83 1469.5,1128.17 1469.5,343.5 Z"/></g>
<g><path style="opacity:0.889" fill="#869099" d="M 1483.5,343.5 C 1485.17,343.5 1486.83,343.5 1488.5,343.5C 1488.5,535.167 1488.5,726.833 1488.5,918.5C 1494.49,917.27 1497.15,919.604 1496.5,925.5C 1495.5,924.833 1494.5,924.167 1493.5,923.5C 1491.74,922.539 1489.74,922.205 1487.5,922.5C 1487.17,1034.86 1487.51,1147.19 1488.5,1259.5C 1491.17,1259.5 1493.83,1259.5 1496.5,1259.5C 1496.67,1266.51 1496.5,1273.51 1496,1280.5C 1493.86,1282.28 1491.36,1282.95 1488.5,1282.5C 1488.67,1788.5 1488.5,2294.5 1488,2800.5C 1487.07,2813.57 1485.57,2826.57 1483.5,2839.5C 1481.39,2845.61 1479.72,2851.94 1478.5,2858.5C 1475.45,2868.32 1471.78,2877.99 1467.5,2887.5C 1466.35,2883.69 1466.19,2879.69 1467,2875.5C 1473.22,2859.64 1477.72,2843.3 1480.5,2826.5C 1481.97,2818.92 1482.81,2811.26 1483,2803.5C 1483.5,2778.17 1483.67,2752.84 1483.5,2727.5C 1484.5,2727.5 1485.5,2727.5 1486.5,2727.5C 1486.83,2717.32 1486.49,2707.32 1485.5,2697.5C 1484.83,2697.5 1484.17,2697.5 1483.5,2697.5C 1483.5,1912.83 1483.5,1128.17 1483.5,343.5 Z"/></g>
<g><path style="opacity:0.906" fill="#b4c1cc" d="M 2.5,725.5 C 2.5,692.167 2.5,658.833 2.5,625.5C 4.82007,623.774 7.48674,623.107 10.5,623.5C 10.5,657.5 10.5,691.5 10.5,725.5C 7.83333,725.5 5.16667,725.5 2.5,725.5 Z"/></g>
<g><path style="opacity:0.906" fill="#cdd6de" d="M 10.5,840.5 C 10.5,854.5 10.5,868.5 10.5,882.5C 7.83333,882.5 5.16667,882.5 2.5,882.5C 2.5,869.167 2.5,855.833 2.5,842.5C 4.82007,840.774 7.48674,840.107 10.5,840.5 Z"/></g>
<g><path style="opacity:1" fill="#9ba8b3" d="M 10.5,840.5 C 11.8189,912.016 11.8189,983.683 10.5,1055.5C 7.83333,1055.5 5.16667,1055.5 2.5,1055.5C 2.5,1052.5 2.5,1049.5 2.5,1046.5C 5.16667,1046.5 7.83333,1046.5 10.5,1046.5C 10.5,991.833 10.5,937.167 10.5,882.5C 10.5,868.5 10.5,854.5 10.5,840.5 Z"/></g>
<g><path style="opacity:0.906" fill="#b2c0cb" d="M 2.5,882.5 C 5.16667,882.5 7.83333,882.5 10.5,882.5C 10.5,937.167 10.5,991.833 10.5,1046.5C 7.83333,1046.5 5.16667,1046.5 2.5,1046.5C 2.5,991.833 2.5,937.167 2.5,882.5 Z"/></g>
<g><path style="opacity:0.906" fill="#d2dae1" d="M 1493.5,923.5 C 1494.5,924.167 1495.5,924.833 1496.5,925.5C 1496.5,941.167 1496.5,956.833 1496.5,972.5C 1493.83,972.5 1491.17,972.5 1488.5,972.5C 1488.5,956.167 1488.5,939.833 1488.5,923.5C 1490.17,923.5 1491.83,923.5 1493.5,923.5 Z"/></g>
<g><path style="opacity:0.906" fill="#b7c5cf" d="M 1488.5,972.5 C 1491.17,972.5 1493.83,972.5 1496.5,972.5C 1496.5,1011.83 1496.5,1051.17 1496.5,1090.5C 1493.83,1090.5 1491.17,1090.5 1488.5,1090.5C 1488.5,1051.17 1488.5,1011.83 1488.5,972.5 Z"/></g>
<g><path style="opacity:1" fill="#9da9b3" d="M 1493.5,923.5 C 1491.83,923.5 1490.17,923.5 1488.5,923.5C 1488.5,939.833 1488.5,956.167 1488.5,972.5C 1488.5,1011.83 1488.5,1051.17 1488.5,1090.5C 1488.5,1145.17 1488.5,1199.83 1488.5,1254.5C 1491.17,1254.5 1493.83,1254.5 1496.5,1254.5C 1496.5,1256.17 1496.5,1257.83 1496.5,1259.5C 1493.83,1259.5 1491.17,1259.5 1488.5,1259.5C 1487.51,1147.19 1487.17,1034.86 1487.5,922.5C 1489.74,922.205 1491.74,922.539 1493.5,923.5 Z"/></g>
<g><path style="opacity:0.906" fill="#b0beca" d="M 1488.5,1090.5 C 1491.17,1090.5 1493.83,1090.5 1496.5,1090.5C 1496.5,1145.17 1496.5,1199.83 1496.5,1254.5C 1493.83,1254.5 1491.17,1254.5 1488.5,1254.5C 1488.5,1199.83 1488.5,1145.17 1488.5,1090.5 Z"/></g>
<g><path style="opacity:0.906" fill="#cdd7de" d="M 10.5,1134.5 C 10.5,1148.5 10.5,1162.5 10.5,1176.5C 7.83333,1176.5 5.16667,1176.5 2.5,1176.5C 2.5,1163.17 2.5,1149.83 2.5,1136.5C 4.82007,1134.77 7.48674,1134.11 10.5,1134.5 Z"/></g>
<g><path style="opacity:1" fill="#9aa7b2" d="M 10.5,1134.5 C 11.8221,1206.02 11.8221,1277.69 10.5,1349.5C 7.83333,1349.5 5.16667,1349.5 2.5,1349.5C 2.5,1347.83 2.5,1346.17 2.5,1344.5C 5.16667,1344.5 7.83333,1344.5 10.5,1344.5C 10.5,1288.5 10.5,1232.5 10.5,1176.5C 10.5,1162.5 10.5,1148.5 10.5,1134.5 Z"/></g>
<g><path style="opacity:0.906" fill="#b1bfcb" d="M 2.5,1176.5 C 5.16667,1176.5 7.83333,1176.5 10.5,1176.5C 10.5,1232.5 10.5,1288.5 10.5,1344.5C 7.83333,1344.5 5.16667,1344.5 2.5,1344.5C 2.5,1288.5 2.5,1232.5 2.5,1176.5 Z"/></g>
<g><path style="opacity:1" fill="#e2e9ec" d="M 13.5,2697.5 C 14.1667,2697.5 14.8333,2697.5 15.5,2697.5C 16.1667,2697.5 16.8333,2697.5 17.5,2697.5C 21.5,2697.5 25.5,2697.5 29.5,2697.5C 29.5,2707.17 29.5,2716.83 29.5,2726.5C 24.1667,2726.5 18.8333,2726.5 13.5,2726.5C 13.5,2716.83 13.5,2707.17 13.5,2697.5 Z"/></g>
<g><path style="opacity:1" fill="#e2e9ec" d="M 1469.5,2697.5 C 1474.17,2697.5 1478.83,2697.5 1483.5,2697.5C 1484.17,2697.5 1484.83,2697.5 1485.5,2697.5C 1485.5,2707.17 1485.5,2716.83 1485.5,2726.5C 1480.17,2726.5 1474.83,2726.5 1469.5,2726.5C 1469.5,2716.83 1469.5,2707.17 1469.5,2697.5 Z"/></g>
<g><path style="opacity:1" fill="#cad6e3" d="M 1485.5,2697.5 C 1486.49,2707.32 1486.83,2717.32 1486.5,2727.5C 1485.5,2727.5 1484.5,2727.5 1483.5,2727.5C 1483.67,2752.84 1483.5,2778.17 1483,2803.5C 1482.81,2811.26 1481.97,2818.92 1480.5,2826.5C 1476.17,2826.5 1471.83,2826.5 1467.5,2826.5C 1467.5,2820.83 1467.5,2815.17 1467.5,2809.5C 1467.72,2802.16 1468.06,2794.83 1468.5,2787.5C 1469.5,2767.34 1469.83,2747.01 1469.5,2726.5C 1474.83,2726.5 1480.17,2726.5 1485.5,2726.5C 1485.5,2716.83 1485.5,2707.17 1485.5,2697.5 Z"/></g>
<g><path style="opacity:0.046" fill="#deeeef" d="M 1483.5,2839.5 C 1483.5,2845.83 1483.5,2852.17 1483.5,2858.5C 1481.83,2858.5 1480.17,2858.5 1478.5,2858.5C 1479.72,2851.94 1481.39,2845.61 1483.5,2839.5 Z"/></g>
<g><path style="opacity:1" fill="#c2d0db" d="M 1467.5,2809.5 C 1467.5,2815.17 1467.5,2820.83 1467.5,2826.5C 1471.83,2826.5 1476.17,2826.5 1480.5,2826.5C 1477.72,2843.3 1473.22,2859.64 1467,2875.5C 1466.19,2879.69 1466.35,2883.69 1467.5,2887.5C 1467.67,2888.49 1467.34,2889.16 1466.5,2889.5C 1464.53,2889.26 1462.7,2889.59 1461,2890.5C 1458,2896.5 1455,2902.5 1452,2908.5C 1451.5,2911.48 1451.34,2914.48 1451.5,2917.5C 1451.84,2919.48 1451.18,2920.82 1449.5,2921.5C 1448.05,2920.39 1446.39,2920.22 1444.5,2921C 1441.64,2925.35 1438.64,2929.51 1435.5,2933.5C 1435.5,2929.17 1435.5,2924.83 1435.5,2920.5C 1431.5,2920.5 1427.5,2920.5 1423.5,2920.5C 1446.78,2887 1461.45,2850 1467.5,2809.5 Z"/></g>
<g><path style="opacity:0.869" fill="#858f98" d="M 1466.5,2889.5 C 1462.51,2899.48 1457.51,2908.81 1451.5,2917.5C 1451.34,2914.48 1451.5,2911.48 1452,2908.5C 1455,2902.5 1458,2896.5 1461,2890.5C 1462.7,2889.59 1464.53,2889.26 1466.5,2889.5 Z"/></g>
<g><path style="opacity:1" fill="#beccd7" d="M 13.5,2697.5 C 13.5,2707.17 13.5,2716.83 13.5,2726.5C 18.8333,2726.5 24.1667,2726.5 29.5,2726.5C 29.1695,2747.01 29.5028,2767.34 30.5,2787.5C 32.2342,2830.69 44.2342,2870.69 66.5,2907.5C 65.5064,2916.65 65.1731,2925.99 65.5,2935.5C 36.7595,2897.81 20.2595,2855.14 16,2807.5C 15.5,2780.84 15.3334,2754.17 15.5,2727.5C 14.5,2727.5 13.5,2727.5 12.5,2727.5C 12.1726,2717.32 12.506,2707.32 13.5,2697.5 Z"/></g>
<g><path style="opacity:1" fill="#c9d6e3" d="M 66.5,2907.5 C 75.7032,2921.05 85.7032,2934.05 96.5,2946.5C 96.5,2948.5 96.5,2950.5 96.5,2952.5C 91.5,2952.5 86.5,2952.5 81.5,2952.5C 81.5,2947.17 81.5,2941.83 81.5,2936.5C 76.1667,2936.5 70.8333,2936.5 65.5,2936.5C 65.5,2936.17 65.5,2935.83 65.5,2935.5C 65.1731,2925.99 65.5064,2916.65 66.5,2907.5 Z"/></g>
<g><path style="opacity:1" fill="#cedde9" d="M 1423.5,2920.5 C 1427.5,2920.5 1431.5,2920.5 1435.5,2920.5C 1435.5,2924.83 1435.5,2929.17 1435.5,2933.5C 1435.71,2935.18 1435.05,2936.18 1433.5,2936.5C 1428.83,2936.5 1424.17,2936.5 1419.5,2936.5C 1419.5,2933.17 1419.5,2929.83 1419.5,2926.5C 1420.44,2924.23 1421.77,2922.23 1423.5,2920.5 Z"/></g>
<g><path style="opacity:1" fill="#bbc9d3" d="M 1419.5,2926.5 C 1419.5,2929.83 1419.5,2933.17 1419.5,2936.5C 1424.17,2936.5 1428.83,2936.5 1433.5,2936.5C 1429.18,2942.15 1424.51,2947.49 1419.5,2952.5C 1419.5,2947.5 1419.5,2942.5 1419.5,2937.5C 1416.5,2937.5 1413.5,2937.5 1410.5,2937.5C 1413.15,2933.52 1416.15,2929.85 1419.5,2926.5 Z"/></g>
<g><path style="opacity:0.063" fill="#deefee" d="M 1435.5,2942.5 C 1435.5,2945.83 1435.5,2949.17 1435.5,2952.5C 1432.83,2952.5 1430.17,2952.5 1427.5,2952.5C 1429.82,2948.85 1432.48,2945.52 1435.5,2942.5 Z"/></g>
<g><path style="opacity:1" fill="#d1dfec" d="M 102.5,2952.5 C 105.833,2955.5 109.167,2958.5 112.5,2961.5C 112.5,2963.5 112.5,2965.5 112.5,2967.5C 107.5,2967.5 102.5,2967.5 97.5,2967.5C 97.5,2962.5 97.5,2957.5 97.5,2952.5C 99.1667,2952.5 100.833,2952.5 102.5,2952.5 Z"/></g>
<g><path style="opacity:0.145" fill="#d5e5f0" d="M 1420.5,2959.5 C 1420.5,2962.5 1420.5,2965.5 1420.5,2968.5C 1417.5,2968.5 1414.5,2968.5 1411.5,2968.5C 1414.17,2965.17 1417.17,2962.17 1420.5,2959.5 Z"/></g>
<g><path style="opacity:0.045" fill="#deefee" d="M 80.5,2962.5 C 82.8333,2964.17 84.8333,2966.17 86.5,2968.5C 84.5,2968.5 82.5,2968.5 80.5,2968.5C 80.5,2966.5 80.5,2964.5 80.5,2962.5 Z"/></g>
<g><path style="opacity:0.997" fill="#8f9aa3" d="M 1449.5,2921.5 C 1445.08,2928.67 1440.41,2935.67 1435.5,2942.5C 1432.48,2945.52 1429.82,2948.85 1427.5,2952.5C 1424.83,2954.5 1422.5,2956.83 1420.5,2959.5C 1417.17,2962.17 1414.17,2965.17 1411.5,2968.5C 1408.97,2970.61 1406.64,2972.94 1404.5,2975.5C 1400.52,2978.15 1396.85,2981.15 1393.5,2984.5C 1391.83,2985.83 1390.17,2987.17 1388.5,2988.5C 1383.17,2992.17 1377.83,2995.83 1372.5,2999.5C 1372.34,2997.47 1372.5,2995.47 1373,2993.5C 1390.53,2982.14 1406.03,2968.48 1419.5,2952.5C 1424.51,2947.49 1429.18,2942.15 1433.5,2936.5C 1435.05,2936.18 1435.71,2935.18 1435.5,2933.5C 1438.64,2929.51 1441.64,2925.35 1444.5,2921C 1446.39,2920.22 1448.05,2920.39 1449.5,2921.5 Z"/></g>
<g><path style="opacity:0.153" fill="#d7e7f2" d="M 1404.5,2975.5 C 1404.5,2978.5 1404.5,2981.5 1404.5,2984.5C 1400.83,2984.5 1397.17,2984.5 1393.5,2984.5C 1396.85,2981.15 1400.52,2978.15 1404.5,2975.5 Z"/></g>
<g><path style="opacity:0.052" fill="#deefee" d="M 96.5,2977.5 C 99.7843,2979.12 102.451,2981.45 104.5,2984.5C 101.833,2984.5 99.1667,2984.5 96.5,2984.5C 96.5,2982.17 96.5,2979.83 96.5,2977.5 Z"/></g>
<g><path style="opacity:1" fill="#c4d1dd" d="M 65.5,2936.5 C 70.8333,2936.5 76.1667,2936.5 81.5,2936.5C 81.5,2941.83 81.5,2947.17 81.5,2952.5C 86.5,2952.5 91.5,2952.5 96.5,2952.5C 96.5,2950.5 96.5,2948.5 96.5,2946.5C 98.8333,2948.17 100.833,2950.17 102.5,2952.5C 100.833,2952.5 99.1667,2952.5 97.5,2952.5C 97.5,2957.5 97.5,2962.5 97.5,2967.5C 102.5,2967.5 107.5,2967.5 112.5,2967.5C 112.5,2965.5 112.5,2963.5 112.5,2961.5C 157.833,3001.18 210.833,3021.18 271.5,3021.5C 283.655,3022.5 295.989,3022.83 308.5,3022.5C 308.5,3026.83 308.5,3031.17 308.5,3035.5C 295.5,3035.5 282.5,3035.5 269.5,3035.5C 253.049,3035.44 236.716,3034.11 220.5,3031.5C 210.78,3029.82 201.114,3027.49 191.5,3024.5C 183.414,3021.96 175.414,3019.13 167.5,3016C 164.854,3015.5 162.187,3015.34 159.5,3015.5C 159.67,3014.18 159.337,3013.01 158.5,3012C 121.366,2994.36 90.3665,2969.2 65.5,2936.5 Z"/></g>
<g><path style="opacity:1" fill="#c7d4e0" d="M 1410.5,2937.5 C 1413.5,2937.5 1416.5,2937.5 1419.5,2937.5C 1419.5,2942.5 1419.5,2947.5 1419.5,2952.5C 1406.03,2968.48 1390.53,2982.14 1373,2993.5C 1372.5,2995.47 1372.34,2997.47 1372.5,2999.5C 1372.17,2999.5 1371.83,2999.5 1371.5,2999.5C 1368.48,2999.34 1365.48,2999.5 1362.5,3000C 1355.5,3003.83 1348.5,3007.67 1341.5,3011.5C 1340.57,3012.69 1340.24,3014.02 1340.5,3015.5C 1337.15,3015.33 1333.82,3015.5 1330.5,3016C 1323.67,3019 1316.67,3021.5 1309.5,3023.5C 1299.2,3026.66 1288.86,3029.32 1278.5,3031.5C 1277.5,3031.5 1276.5,3031.5 1275.5,3031.5C 1260.83,3031.5 1246.17,3031.5 1231.5,3031.5C 1230.59,3028.27 1230.25,3024.94 1230.5,3021.5C 1302.72,3019.01 1362.72,2991.01 1410.5,2937.5 Z"/></g>
<g><path style="opacity:0.054" fill="#deeeef" d="M 1388.5,2988.5 C 1388.5,2992.5 1388.5,2996.5 1388.5,3000.5C 1382.83,3000.5 1377.17,3000.5 1371.5,3000.5C 1371.5,3000.17 1371.5,2999.83 1371.5,2999.5C 1371.83,2999.5 1372.17,2999.5 1372.5,2999.5C 1377.83,2995.83 1383.17,2992.17 1388.5,2988.5 Z"/></g>
<g><path style="opacity:0.222" fill="#daeaf6" d="M 1357.5,3008.5 C 1357.5,3010.83 1357.5,3013.17 1357.5,3015.5C 1353.17,3015.5 1348.83,3015.5 1344.5,3015.5C 1348.64,3012.93 1352.97,3010.6 1357.5,3008.5 Z"/></g>
<g><path style="opacity:0.114" fill="#d4e4f4" d="M 143.5,3009.5 C 147.362,3011.26 151.028,3013.26 154.5,3015.5C 150.833,3015.5 147.167,3015.5 143.5,3015.5C 143.5,3013.5 143.5,3011.5 143.5,3009.5 Z"/></g>
<g><path style="opacity:0.998" fill="#909aa4" d="M 1371.5,2999.5 C 1371.5,2999.83 1371.5,3000.17 1371.5,3000.5C 1366.83,3003.17 1362.17,3005.83 1357.5,3008.5C 1352.97,3010.6 1348.64,3012.93 1344.5,3015.5C 1338.16,3018.17 1331.83,3020.83 1325.5,3023.5C 1320.16,3025.17 1314.82,3026.84 1309.5,3028.5C 1309.5,3026.83 1309.5,3025.17 1309.5,3023.5C 1316.67,3021.5 1323.67,3019 1330.5,3016C 1333.82,3015.5 1337.15,3015.33 1340.5,3015.5C 1340.24,3014.02 1340.57,3012.69 1341.5,3011.5C 1348.5,3007.67 1355.5,3003.83 1362.5,3000C 1365.48,2999.5 1368.48,2999.34 1371.5,2999.5 Z"/></g>
<g><path style="opacity:1" fill="#beccd7" d="M 271.5,3021.5 C 591.167,3021.5 910.833,3021.5 1230.5,3021.5C 1230.25,3024.94 1230.59,3028.27 1231.5,3031.5C 1230.6,3032.21 1230.26,3033.21 1230.5,3034.5C 933.333,3034.17 636.333,3034.5 339.5,3035.5C 339.167,3035.5 338.833,3035.5 338.5,3035.5C 338.5,3031.17 338.5,3026.83 338.5,3022.5C 328.5,3022.5 318.5,3022.5 308.5,3022.5C 295.989,3022.83 283.655,3022.5 271.5,3021.5 Z"/></g>
<g><path style="opacity:1" fill="#e2e8ec" d="M 308.5,3022.5 C 318.5,3022.5 328.5,3022.5 338.5,3022.5C 338.5,3026.83 338.5,3031.17 338.5,3035.5C 338.5,3036.83 338.5,3038.17 338.5,3039.5C 328.5,3039.5 318.5,3039.5 308.5,3039.5C 308.5,3038.17 308.5,3036.83 308.5,3035.5C 308.5,3031.17 308.5,3026.83 308.5,3022.5 Z"/></g>
<g><path style="opacity:0.117" fill="#d6e6f5" d="M 1325.5,3023.5 C 1325.5,3026.17 1325.5,3028.83 1325.5,3031.5C 1317.5,3031.5 1309.5,3031.5 1301.5,3031.5C 1303.9,3030.01 1306.57,3029.01 1309.5,3028.5C 1314.82,3026.84 1320.16,3025.17 1325.5,3023.5 Z"/></g>
<g><path style="opacity:0.059" fill="#deeeef" d="M 175.5,3024.5 C 180.393,3026.24 185.393,3027.58 190.5,3028.5C 192.779,3029.65 195.112,3030.65 197.5,3031.5C 190.167,3031.5 182.833,3031.5 175.5,3031.5C 175.5,3029.17 175.5,3026.83 175.5,3024.5 Z"/></g>
<g><path style="opacity:1" fill="#acb8c3" d="M 1309.5,3023.5 C 1309.5,3025.17 1309.5,3026.83 1309.5,3028.5C 1306.57,3029.01 1303.9,3030.01 1301.5,3031.5C 1300.5,3031.5 1299.5,3031.5 1298.5,3031.5C 1291.83,3031.5 1285.17,3031.5 1278.5,3031.5C 1288.86,3029.32 1299.2,3026.66 1309.5,3023.5 Z"/></g>
<g><path style="opacity:1" fill="#a6b2bd" d="M 191.5,3024.5 C 201.114,3027.49 210.78,3029.82 220.5,3031.5C 213.833,3031.5 207.167,3031.5 200.5,3031.5C 199.5,3031.5 198.5,3031.5 197.5,3031.5C 195.112,3030.65 192.779,3029.65 190.5,3028.5C 191.434,3027.43 191.768,3026.1 191.5,3024.5 Z"/></g>
<g><path style="opacity:0.9" fill="#848e97" d="M 200.5,3031.5 C 207.167,3031.5 213.833,3031.5 220.5,3031.5C 236.716,3034.11 253.049,3035.44 269.5,3035.5C 269.5,3036.83 269.5,3038.17 269.5,3039.5C 245.958,3040.31 222.958,3037.65 200.5,3031.5 Z"/></g>
<g><path style="opacity:0.877" fill="#869099" d="M 1275.5,3031.5 C 1276.5,3031.5 1277.5,3031.5 1278.5,3031.5C 1285.17,3031.5 1291.83,3031.5 1298.5,3031.5C 1281.62,3036.28 1264.29,3038.95 1246.5,3039.5C 1241.17,3039.5 1235.83,3039.5 1230.5,3039.5C 1230.5,3038.17 1230.5,3036.83 1230.5,3035.5C 1245.75,3035.36 1260.75,3034.02 1275.5,3031.5 Z"/></g>
<g><path style="opacity:1" fill="#b7c4cf" d="M 1231.5,3031.5 C 1246.17,3031.5 1260.83,3031.5 1275.5,3031.5C 1260.75,3034.02 1245.75,3035.36 1230.5,3035.5C 933.5,3035.5 636.5,3035.5 339.5,3035.5C 636.333,3034.5 933.333,3034.17 1230.5,3034.5C 1230.26,3033.21 1230.6,3032.21 1231.5,3031.5 Z"/></g>
<g><path style="opacity:1" fill="#99a4ae" d="M 269.5,3035.5 C 282.5,3035.5 295.5,3035.5 308.5,3035.5C 308.5,3036.83 308.5,3038.17 308.5,3039.5C 295.5,3039.5 282.5,3039.5 269.5,3039.5C 269.5,3038.17 269.5,3036.83 269.5,3035.5 Z"/></g>
<g><path style="opacity:1" fill="#9aa5af" d="M 338.5,3035.5 C 338.833,3035.5 339.167,3035.5 339.5,3035.5C 636.5,3035.5 933.5,3035.5 1230.5,3035.5C 1230.5,3036.83 1230.5,3038.17 1230.5,3039.5C 933.167,3039.5 635.833,3039.5 338.5,3039.5C 338.5,3038.17 338.5,3036.83 338.5,3035.5 Z"/></g>
<g><path style="opacity:0.251" fill="#dbebf6" d="M 269.5,3039.5 C 282.5,3039.5 295.5,3039.5 308.5,3039.5C 318.5,3039.5 328.5,3039.5 338.5,3039.5C 635.833,3039.5 933.167,3039.5 1230.5,3039.5C 1235.83,3039.5 1241.17,3039.5 1246.5,3039.5C 1246.5,3040.17 1246.5,3040.83 1246.5,3041.5C 920.833,3041.5 595.167,3041.5 269.5,3041.5C 269.5,3040.83 269.5,3040.17 269.5,3039.5 Z"/></g>
</svg>
