<?xml version="1.0" encoding="UTF-8"?>
<svg version="1.1" xmlns="http://www.w3.org/2000/svg" width="500" height="500">
<path d="M0 0 C54.78 0 109.56 0 166 0 C166 27.72204061 161.18499456 43.95688457 144.21728516 64.49707031 C137.68773146 72.55882976 131.88750216 82.05086544 131.86692142 92.67815495 C131.86268038 93.61985226 131.85843933 94.56154957 131.85406977 95.53178316 C131.8544559 96.56318452 131.85484203 97.59458588 131.85523987 98.65724182 C131.8499496 100.30456524 131.8499496 100.30456524 131.84455246 101.98516792 C131.83384747 105.67834859 131.8301813 109.37150348 131.82641602 113.06469727 C131.820112 115.70750655 131.81340509 118.35031175 131.80615234 120.99311829 C131.79121486 126.69194261 131.77966942 132.39076562 131.77020454 138.08960152 C131.75632228 146.34115625 131.73513213 154.59268045 131.71177601 162.84421324 C131.67385346 176.2474533 131.63889287 189.6506989 131.60717773 203.05395508 C131.604327 204.25743293 131.604327 204.25743293 131.60141867 205.48522346 C131.57461286 216.85968134 131.55073221 228.23414349 131.52803367 239.60861021 C131.52643637 240.40880644 131.52483906 241.20900267 131.52319336 242.03344727 C131.52159989 242.83266574 131.52000643 243.63188422 131.51836468 244.45532144 C131.49156092 257.79984007 131.45714495 271.14432629 131.41653961 284.48881 C131.39181427 292.71457515 131.37345987 300.9403055 131.363384 309.16610187 C131.35597066 314.80922091 131.34141078 320.45229323 131.32131977 326.09538127 C131.30997344 329.3473471 131.30288156 332.59922357 131.30232811 335.85121155 C131.30124113 339.38552643 131.28795304 342.91959935 131.27174377 346.45387268 C131.27436063 347.46965899 131.27697748 348.48544529 131.27967364 349.532013 C131.1997965 360.72787933 130.0612546 371.44553838 122.17578125 379.97265625 C116.89646249 384.85784119 111.35485573 389 104 389 C104 389.66 104 390.32 104 391 C90.14 391 76.28 391 62 391 C62 390.34 62 389.68 62 389 C60.824375 388.938125 60.824375 388.938125 59.625 388.875 C51.48114346 386.90924152 44.58668007 381.98356005 40 375 C36.32452946 367.88638336 35.42283906 361.59029348 35.49447632 353.66592407 C35.48534114 352.01809451 35.48534114 352.01809451 35.47602141 350.33697546 C35.46048172 346.67836991 35.47318622 343.02042466 35.48583984 339.36181641 C35.48037634 336.72957765 35.47332318 334.09738834 35.46424866 331.46516418 C35.44779384 325.80732776 35.44559301 320.14963273 35.45301437 314.49177933 C35.46356412 306.29857072 35.45009789 298.10553396 35.43054982 289.9123482 C35.39925076 276.60009353 35.38420859 263.28787531 35.38085938 249.97558594 C35.38065539 249.1799133 35.3804514 248.38424067 35.38024123 247.56445675 C35.37993618 246.36949561 35.37993618 246.36949561 35.37962496 245.15039384 C35.37670631 233.86197578 35.36990413 222.57356899 35.35839844 211.28515625 C35.35759314 210.49106651 35.35678785 209.69697678 35.35595815 208.87882371 C35.34218103 195.61661086 35.32037591 182.35441799 35.2945286 169.09222353 C35.27912672 160.92439494 35.27186364 152.75663193 35.27532353 144.58878909 C35.27737098 138.98824931 35.27267045 133.38774207 35.26278017 127.78721072 C35.25737338 124.56139711 35.25634665 121.3356847 35.26195335 118.109869 C35.26762629 114.60251602 35.26101228 111.09538345 35.2515564 107.58804321 C35.25621961 106.58315342 35.26088282 105.57826362 35.26568735 104.54292262 C35.17160969 86.57394173 30.13494034 74.68529058 19 61 C12.85249992 53.43231458 7.36587409 46.27855026 4 37 C3.60941406 36.01386719 3.21882812 35.02773437 2.81640625 34.01171875 C-1.3132692 22.0799575 0 13.79767411 0 0 Z M62 137 C56.97604284 144.79838126 55.84405563 151.80808045 55.796875 160.88671875 C55.79117493 161.74376907 55.78547485 162.6008194 55.77960205 163.48384094 C55.77017703 165.29512305 55.76362802 167.1064221 55.75976562 168.91772461 C55.75009359 171.66095693 55.71906055 174.40342868 55.6875 177.14648438 C55.61805887 188.49399305 55.58427276 199.03849937 63.1484375 208.2421875 C68.75983404 213.56946269 75.64613912 215.77407982 83.26953125 216.12890625 C91.23223261 215.75298473 98.50166087 212.86489508 104 207 C109.02395716 199.20161874 110.15594437 192.19191955 110.203125 183.11328125 C110.21167511 181.82770576 110.21167511 181.82770576 110.22039795 180.51615906 C110.22982297 178.70487695 110.23637198 176.8935779 110.24023438 175.08227539 C110.24990641 172.33904307 110.28093945 169.59657132 110.3125 166.85351562 C110.38194113 155.50600695 110.41572724 144.96150063 102.8515625 135.7578125 C97.24016596 130.43053731 90.35386088 128.22592018 82.73046875 127.87109375 C74.76776739 128.24701527 67.49833913 131.13510492 62 137 Z " fill="#FFFFFF" transform="translate(167,78)"/>
<path d="M0 0 C45.54 0 91.08 0 138 0 C138 0.66 138 1.32 138 2 C138.721875 2.226875 139.44375 2.45375 140.1875 2.6875 C146.56101873 5.66180874 149.67344751 10.62352281 152 17 C152 21.95 152 26.9 152 32 C97.22 32 42.44 32 -14 32 C-14 13.71794872 -14 13.71794872 -7.5625 6.125 C-5.07380261 4.06120217 -3.06571436 2.96351023 0 2 C0 1.34 0 0.68 0 0 Z " fill="#FFFFFF" transform="translate(181,31)"/>
<path d="M0 0 C5.34928015 2.775458 8.83421724 7.75655798 10.69921875 13.3515625 C11.39366714 20.39850595 11.2087755 26.63029659 6.69921875 32.3515625 C0.92741916 37.67044421 -3.81963561 39.74682102 -11.671875 39.62109375 C-16.84236812 39.09098376 -20.56736613 37.22848475 -24.09375 33.41015625 C-29.13485206 26.90821227 -30.09409266 21.51931796 -29.30078125 13.3515625 C-27.55305139 7.40928096 -24.29348647 3.85707893 -19.30078125 0.3515625 C-13.40720691 -1.61296228 -5.99067912 -1.68837476 0 0 Z " fill="#FFFFFF" transform="translate(259.30078125,247.6484375)"/>
</svg>
